G04*
G04 #@! TF.GenerationSoftware,Altium Limited,Altium Designer,20.1.11 (218)*
G04*
G04 Layer_Color=32896*
%FSLAX44Y44*%
%MOMM*%
G71*
G04*
G04 #@! TF.SameCoordinates,6F891966-A938-45B2-A706-970299DF58FA*
G04*
G04*
G04 #@! TF.FilePolarity,Positive*
G04*
G01*
G75*
%ADD10C,0.2540*%
D10*
X688340Y435610D02*
G03*
X688340Y435610I-2540J0D01*
G01*
X806761Y361820D02*
Y369440D01*
Y377060D01*
X1461980Y485650D02*
Y493268D01*
X1459441Y490728D01*
X1456902Y493268D01*
Y485650D01*
X1453093Y490728D02*
X1450554D01*
X1449284Y489459D01*
Y485650D01*
X1453093D01*
X1454362Y486920D01*
X1453093Y488189D01*
X1449284D01*
X1446745Y485650D02*
Y490728D01*
X1442936D01*
X1441667Y489459D01*
Y485650D01*
X1439127D02*
X1436588D01*
X1437858D01*
Y490728D01*
X1439127D01*
X1420084Y491998D02*
X1421353Y493268D01*
X1423892D01*
X1425162Y491998D01*
Y490728D01*
X1423892Y489459D01*
X1421353D01*
X1420084Y488189D01*
Y486920D01*
X1421353Y485650D01*
X1423892D01*
X1425162Y486920D01*
X1417544Y485650D02*
X1415005D01*
X1416275D01*
Y493268D01*
X1417544D01*
X1409927Y485650D02*
X1407388D01*
X1406118Y486920D01*
Y489459D01*
X1407388Y490728D01*
X1409927D01*
X1411196Y489459D01*
Y486920D01*
X1409927Y485650D01*
X1402309Y491998D02*
Y490728D01*
X1403579D01*
X1401040D01*
X1402309D01*
Y486920D01*
X1401040Y485650D01*
X1384535Y491998D02*
X1385805Y493268D01*
X1388344D01*
X1389613Y491998D01*
Y486920D01*
X1388344Y485650D01*
X1385805D01*
X1384535Y486920D01*
X1380726Y490728D02*
X1378187D01*
X1376918Y489459D01*
Y485650D01*
X1380726D01*
X1381996Y486920D01*
X1380726Y488189D01*
X1376918D01*
X1374378Y490728D02*
Y485650D01*
Y488189D01*
X1373109Y489459D01*
X1371839Y490728D01*
X1370570D01*
X1361682Y493268D02*
Y485650D01*
X1365491D01*
X1366761Y486920D01*
Y489459D01*
X1365491Y490728D01*
X1361682D01*
X1351526Y493268D02*
Y488189D01*
X1348987Y485650D01*
X1346447Y488189D01*
Y493268D01*
X1343908Y491998D02*
X1342639Y493268D01*
X1340099D01*
X1338830Y491998D01*
Y490728D01*
X1340099Y489459D01*
X1341369D01*
X1340099D01*
X1338830Y488189D01*
Y486920D01*
X1340099Y485650D01*
X1342639D01*
X1343908Y486920D01*
X1461980Y471677D02*
Y464059D01*
X1458171D01*
X1456902Y465329D01*
Y470407D01*
X1458171Y471677D01*
X1461980D01*
X1454362Y469137D02*
Y464059D01*
Y466598D01*
X1453093Y467868D01*
X1451823Y469137D01*
X1450554D01*
X1445475D02*
X1442936D01*
X1441667Y467868D01*
Y464059D01*
X1445475D01*
X1446745Y465329D01*
X1445475Y466598D01*
X1441667D01*
X1439127Y469137D02*
Y465329D01*
X1437858Y464059D01*
X1436588Y465329D01*
X1435319Y464059D01*
X1434049Y465329D01*
Y469137D01*
X1431510Y464059D02*
Y469137D01*
X1427701D01*
X1426432Y467868D01*
Y464059D01*
X1416275Y471677D02*
Y464059D01*
X1412466D01*
X1411196Y465329D01*
Y466598D01*
Y467868D01*
X1412466Y469137D01*
X1416275D01*
X1408657D02*
Y465329D01*
X1407388Y464059D01*
X1403579D01*
Y462790D01*
X1404848Y461520D01*
X1406118D01*
X1403579Y464059D02*
Y469137D01*
X1401040D02*
X1399770D01*
Y467868D01*
X1401040D01*
Y469137D01*
Y465329D02*
X1399770D01*
Y464059D01*
X1401040D01*
Y465329D01*
X1387074Y471677D02*
Y465329D01*
X1385805Y464059D01*
X1383266D01*
X1381996Y465329D01*
Y471677D01*
X1379457Y464059D02*
X1375648D01*
X1374378Y465329D01*
X1375648Y466598D01*
X1378187D01*
X1379457Y467868D01*
X1378187Y469137D01*
X1374378D01*
X1368030Y464059D02*
X1370570D01*
X1371839Y465329D01*
Y467868D01*
X1370570Y469137D01*
X1368030D01*
X1366761Y467868D01*
Y466598D01*
X1371839D01*
X1364222Y464059D02*
X1361682D01*
X1362952D01*
Y471677D01*
X1364222D01*
X1354065Y464059D02*
X1356604D01*
X1357874Y465329D01*
Y467868D01*
X1356604Y469137D01*
X1354065D01*
X1352795Y467868D01*
Y466598D01*
X1357874D01*
X1350256Y464059D02*
X1346447D01*
X1345178Y465329D01*
X1346447Y466598D01*
X1348987D01*
X1350256Y467868D01*
X1348987Y469137D01*
X1345178D01*
X1342639Y464059D02*
X1338830D01*
X1337560Y465329D01*
X1338830Y466598D01*
X1341369D01*
X1342639Y467868D01*
X1341369Y469137D01*
X1337560D01*
X1327404Y471677D02*
Y464059D01*
X1323595D01*
X1322325Y465329D01*
Y466598D01*
X1323595Y467868D01*
X1327404D01*
X1323595D01*
X1322325Y469137D01*
Y470407D01*
X1323595Y471677D01*
X1327404D01*
X1319786Y469137D02*
Y464059D01*
Y466598D01*
X1318517Y467868D01*
X1317247Y469137D01*
X1315977D01*
X1312168D02*
Y465329D01*
X1310899Y464059D01*
X1307090D01*
Y462790D01*
X1308360Y461520D01*
X1309629D01*
X1307090Y464059D02*
Y469137D01*
X1303281D02*
X1300742D01*
X1299473Y467868D01*
Y464059D01*
X1303281D01*
X1304551Y465329D01*
X1303281Y466598D01*
X1299473D01*
X1296933Y464059D02*
Y469137D01*
X1293125D01*
X1291855Y467868D01*
Y464059D01*
X1461980Y451357D02*
Y443740D01*
X1458171D01*
X1456902Y445010D01*
Y450088D01*
X1458171Y451357D01*
X1461980D01*
X1453093Y448818D02*
X1450554D01*
X1449284Y447549D01*
Y443740D01*
X1453093D01*
X1454362Y445010D01*
X1453093Y446279D01*
X1449284D01*
X1445475Y450088D02*
Y448818D01*
X1446745D01*
X1444206D01*
X1445475D01*
Y445010D01*
X1444206Y443740D01*
X1436588D02*
X1439127D01*
X1440397Y445010D01*
Y447549D01*
X1439127Y448818D01*
X1436588D01*
X1435319Y447549D01*
Y446279D01*
X1440397D01*
X1432780Y448818D02*
X1431510D01*
Y447549D01*
X1432780D01*
Y448818D01*
Y445010D02*
X1431510D01*
Y443740D01*
X1432780D01*
Y445010D01*
X1413736Y443740D02*
X1418814D01*
X1413736Y448818D01*
Y450088D01*
X1415005Y451357D01*
X1417544D01*
X1418814Y450088D01*
X1411196D02*
X1409927Y451357D01*
X1407388D01*
X1406118Y450088D01*
Y445010D01*
X1407388Y443740D01*
X1409927D01*
X1411196Y445010D01*
Y450088D01*
X1398501Y443740D02*
X1403579D01*
X1398501Y448818D01*
Y450088D01*
X1399770Y451357D01*
X1402309D01*
X1403579Y450088D01*
X1395961Y443740D02*
X1393422D01*
X1394692D01*
Y451357D01*
X1395961Y450088D01*
X1389613Y447549D02*
X1384535D01*
X1381996Y450088D02*
X1380726Y451357D01*
X1378187D01*
X1376918Y450088D01*
Y445010D01*
X1378187Y443740D01*
X1380726D01*
X1381996Y445010D01*
Y450088D01*
X1369300Y451357D02*
X1374378D01*
Y447549D01*
X1371839Y448818D01*
X1370570D01*
X1369300Y447549D01*
Y445010D01*
X1370570Y443740D01*
X1373109D01*
X1374378Y445010D01*
X1366761Y447549D02*
X1361682D01*
X1359143Y450088D02*
X1357874Y451357D01*
X1355335D01*
X1354065Y450088D01*
Y448818D01*
X1355335Y447549D01*
X1356604D01*
X1355335D01*
X1354065Y446279D01*
Y445010D01*
X1355335Y443740D01*
X1357874D01*
X1359143Y445010D01*
X1351526Y443740D02*
X1348987D01*
X1350256D01*
Y451357D01*
X1351526Y450088D01*
X777437Y364362D02*
Y374518D01*
X772359D01*
X770666Y372826D01*
Y369440D01*
X772359Y367747D01*
X777437D01*
X774052D02*
X770666Y364362D01*
X760509Y374518D02*
X763895Y372826D01*
X767281Y369440D01*
Y366054D01*
X765588Y364362D01*
X762202D01*
X760509Y366054D01*
Y367747D01*
X762202Y369440D01*
X767281D01*
X644131Y515366D02*
X637360D01*
X640746D01*
Y505210D01*
X633975D02*
X630589D01*
X632282D01*
Y515366D01*
X633975Y513674D01*
X1213446Y543269D02*
X1215831Y543061D01*
X1218007Y540467D01*
X1217798Y538082D01*
X1212611Y533730D01*
X1210227Y533939D01*
X1208050Y536532D01*
X1208259Y538917D01*
X1208885Y546072D02*
X1206709Y548665D01*
X1204324Y548874D01*
X1200434Y545609D01*
X1203698Y541719D01*
X1206083Y541510D01*
X1206292Y543895D01*
X1203027Y547785D01*
X1198258Y548203D02*
X1203445Y552555D01*
X1202356Y553852D01*
X1199971Y554061D01*
X1196081Y550796D01*
X1199971Y554061D01*
X1200180Y556446D01*
X1197795Y556654D01*
X1193905Y553390D01*
X1189716Y574183D02*
X1191893Y571589D01*
X1191684Y569204D01*
X1186497Y564852D01*
X1184112Y565061D01*
X1181936Y567654D01*
X1182145Y570039D01*
X1187332Y574391D01*
X1189716Y574183D01*
X1186452Y578073D02*
X1179968Y572632D01*
X1177583Y572841D01*
X1175407Y575435D01*
X1175616Y577819D01*
X1182100Y583260D01*
X1179923Y585854D02*
X1175571Y591040D01*
X1177747Y588447D01*
X1169967Y581918D01*
X1035455Y663361D02*
Y653204D01*
Y658283D01*
X1028684D01*
Y663361D01*
Y653204D01*
X1025298Y659976D02*
Y654897D01*
X1023605Y653204D01*
X1018527D01*
Y659976D01*
X1015141Y653204D02*
Y659976D01*
X1010063D01*
X1008370Y658283D01*
Y653204D01*
X1001599Y649819D02*
X999906D01*
X998213Y651512D01*
Y659976D01*
X1003292D01*
X1004985Y658283D01*
Y654897D01*
X1003292Y653204D01*
X998213D01*
X984671Y663361D02*
Y653204D01*
X977900D01*
X972822D02*
X969436D01*
X967743Y654897D01*
Y658283D01*
X969436Y659976D01*
X972822D01*
X974514Y658283D01*
Y654897D01*
X972822Y653204D01*
X964358D02*
Y659976D01*
X959279D01*
X957587Y658283D01*
Y653204D01*
X949123D02*
X952508D01*
X954201Y654897D01*
Y658283D01*
X952508Y659976D01*
X949123D01*
X947430Y658283D01*
Y656590D01*
X954201D01*
X933887Y659976D02*
X930502Y653204D01*
X927116Y659976D01*
X923731Y653204D02*
X920345D01*
X922038D01*
Y663361D01*
X923731Y661668D01*
X770400Y589788D02*
X763872Y597569D01*
X763454Y592799D01*
X758684Y593216D01*
X765213Y585436D01*
X762620Y583259D02*
X760026Y581083D01*
X761323Y582171D01*
X756970Y587358D01*
X758267Y588446D01*
X746596Y578653D02*
X750487Y581918D01*
X752871Y581709D01*
X755048Y579116D01*
X754839Y576731D01*
X750949Y573466D01*
X744003Y576477D02*
X748355Y571290D01*
X746179Y573884D01*
X743794Y574092D01*
X741409Y574301D01*
X740113Y573213D01*
X739278Y563674D02*
X736685Y561497D01*
X734300Y561706D01*
X732123Y564300D01*
X732332Y566684D01*
X734926Y568861D01*
X737310Y568652D01*
X739487Y566058D01*
X739278Y563674D01*
X729530Y562123D02*
X724343Y557771D01*
X725014Y551704D02*
X718485Y559485D01*
X714595Y556221D01*
X714386Y553836D01*
X716562Y551242D01*
X718947Y551034D01*
X722838Y554298D01*
X720244Y552122D02*
X719827Y547352D01*
X706814Y549692D02*
X709408Y551868D01*
X711793Y551660D01*
X716145Y546473D01*
X715937Y544088D01*
X713343Y541912D01*
X710958Y542120D01*
X706606Y547307D01*
X706814Y549692D01*
X702924Y546428D02*
X707277Y541241D01*
X706859Y536471D01*
X702090Y536888D01*
X697737Y542075D01*
M02*
