M48
;Layer_Color=9474304
;FILE_FORMAT=4:4
METRIC,LZ
;TYPE=PLATED
T1F00S00C0.3810
T2F00S00C0.9000
T3F00S00C1.3000
%
T01
X0058556Y00349593
X00683827
X0074316
X0076286
X008509Y003556
X008636Y00381
X008382
X011176
X01143
X011684
X011811Y003556
X011557
X011303
X011049
X011176Y003302
Y002794
X011557Y003048
X012573Y003556
X012827
X013081
X013335
X013589
X013843
X014097
X014351
X014605
X014478Y00381
X014224
X01397
X013716
X013462
X013208
X0127
X012827Y004064
X013081
X013208Y004318
X012954
X0127
X012827Y004572
X013081
X013335
X013462Y004826
X013716
X01397
X014224
X014478
X014605Y00508
X014351
X014097
X014224Y005334
X014478
X014605Y005588
X014351
X014478Y005842
X014224
X01397
Y00635
X014224
X014351Y006096
X013716Y00635
X013462
X013208
X012954
X0127
X012446
X012192
Y006858
X012446
X0127
X012954
X013208
X013462
X013716
X013843Y006604
X013335
Y007112
X012827
X012954Y007366
X012573Y00762
X012319
X0121987Y0074736
X012192Y007874
X011938
X012573Y006096
X012827
X012954Y005842
X013208
X013462
X013335Y005588
X013081
X012827
X012573
X0127Y005842
Y005334
X012954
X013208
X013462
X013589Y00508
X013335
X013081
X012827
X012573
X0127Y004826
X012954
X013208
X012573Y004572
Y004064
X013843
X014097
X014351
X014605
X014478Y004318
X014605Y004572
X014351
X014097
X01397Y004318
Y005334
X011811Y00508
X011684Y004826
X01143
Y004318
X011684
X011811Y004572
Y004064
X011557
X011303
X011049
X011176Y004318
X010922
X010668
X010795Y004572
X011049
X010922Y004826
X010668
X010414
X01016
X009906
X009652
X009779Y00508
X010033
X010287
X010541
X010795
X011049
X011176Y005334
X011303Y005588
X010541Y004572
X010287
X010033
X009525
X009271
X0090043Y0044196
X00889Y004318
X008763Y004064
X008509
X00850631Y00441702
X008509Y004572
X008636Y004826
X00889
X009017Y00508
X009398Y005334
X0092515Y00567319
Y00634324
X009398Y00635
X0091821Y006604
X0093345Y0067691
X0093833Y0068326
X0095885Y0070013
X0098829Y0071513
X0099314Y0072013
X0099826Y0072513
X0098048Y00745973
X0096548Y00751973
X0102362Y0076454
X0104394Y0078486
X011811Y00762
X0088265Y0067731
X008128Y0050927
X008255Y0048558
X0081915Y00448806
X008001Y004572
X008382Y004318
X007874
X00772599Y0044196
X007366Y004318
X0072263Y00413909
X00683454Y00417526
X006858Y004318
X0069469Y00463733
X0070231
X0070993
Y0047244
X0070231
X0069469
Y0048077
X0070231
X0070993
Y00489477
X0070231
X0069469
Y00498766
X0070231
X0070993
Y00507473
X0070231
X0069469
Y00515803
X0070231
X0070993
Y0052451
X0070231
X0069469
X006731Y005588
X0068453Y00635005
X0074549Y0068326
X00734069Y0072513
X007874Y004826
X006096
X006223Y00508
Y004572
X005969
X006096Y004318
X005842
X00635Y0043605
X011303Y008128
X011557
X011811
X011176Y008382
T02
X0138303Y005334
Y005588
Y005842
Y006096
T03
X00404368Y0055371
X00619368
M30
