G04*
G04 #@! TF.GenerationSoftware,Altium Limited,Altium Designer,20.1.11 (218)*
G04*
G04 Layer_Color=8388736*
%FSLAX44Y44*%
%MOMM*%
G71*
G04*
G04 #@! TF.SameCoordinates,6F891966-A938-45B2-A706-970299DF58FA*
G04*
G04*
G04 #@! TF.FilePolarity,Negative*
G04*
G01*
G75*
%ADD26R,1.2032X1.1532*%
%ADD27R,1.6032X1.3032*%
G04:AMPARAMS|DCode=28|XSize=4.1032mm|YSize=2.0032mm|CornerRadius=0mm|HoleSize=0mm|Usage=FLASHONLY|Rotation=40.000|XOffset=0mm|YOffset=0mm|HoleType=Round|Shape=Rectangle|*
%AMROTATEDRECTD28*
4,1,4,-0.9278,-2.0860,-2.2154,-0.5515,0.9278,2.0860,2.2154,0.5515,-0.9278,-2.0860,0.0*
%
%ADD28ROTATEDRECTD28*%

G04:AMPARAMS|DCode=29|XSize=4.7032mm|YSize=1.5032mm|CornerRadius=0mm|HoleSize=0mm|Usage=FLASHONLY|Rotation=40.000|XOffset=0mm|YOffset=0mm|HoleType=Round|Shape=Rectangle|*
%AMROTATEDRECTD29*
4,1,4,-1.3183,-2.0873,-2.2846,-0.9358,1.3183,2.0873,2.2846,0.9358,-1.3183,-2.0873,0.0*
%
%ADD29ROTATEDRECTD29*%

G04:AMPARAMS|DCode=30|XSize=4.7032mm|YSize=1.5032mm|CornerRadius=0mm|HoleSize=0mm|Usage=FLASHONLY|Rotation=130.000|XOffset=0mm|YOffset=0mm|HoleType=Round|Shape=Rectangle|*
%AMROTATEDRECTD30*
4,1,4,2.0873,-1.3183,0.9358,-2.2846,-2.0873,1.3183,-0.9358,2.2846,2.0873,-1.3183,0.0*
%
%ADD30ROTATEDRECTD30*%

G04:AMPARAMS|DCode=31|XSize=4.1032mm|YSize=2.0032mm|CornerRadius=0mm|HoleSize=0mm|Usage=FLASHONLY|Rotation=130.000|XOffset=0mm|YOffset=0mm|HoleType=Round|Shape=Rectangle|*
%AMROTATEDRECTD31*
4,1,4,2.0860,-0.9278,0.5515,-2.2154,-2.0860,0.9278,-0.5515,2.2154,2.0860,-0.9278,0.0*
%
%ADD31ROTATEDRECTD31*%

%ADD32R,2.2032X8.2032*%
%ADD33R,0.5032X1.4032*%
%ADD34R,1.4032X0.5032*%
%ADD35R,1.3032X1.6032*%
%ADD36R,1.4032X1.6032*%
%ADD37R,1.2032X2.2032*%
%ADD38R,2.6032X1.2032*%
%ADD39R,2.6032X3.5032*%
%ADD40C,2.2032*%
%ADD41R,2.1032X2.1032*%
%ADD42O,2.1032X2.1032*%
%ADD43C,2.1032*%
D26*
X683827Y366700D02*
D03*
Y382200D02*
D03*
X722630Y382400D02*
D03*
Y366900D02*
D03*
X743160D02*
D03*
Y382400D02*
D03*
X762860Y366900D02*
D03*
Y382400D02*
D03*
X782560D02*
D03*
Y366900D02*
D03*
X821690Y382400D02*
D03*
Y366900D02*
D03*
D27*
X1327150Y392430D02*
D03*
Y412430D02*
D03*
X793750Y740130D02*
D03*
Y720130D02*
D03*
X1075690Y672670D02*
D03*
Y692670D02*
D03*
X1029970Y638970D02*
D03*
Y658970D02*
D03*
X906780Y693260D02*
D03*
Y673260D02*
D03*
X816610Y740130D02*
D03*
Y720130D02*
D03*
X1101090Y738030D02*
D03*
Y758030D02*
D03*
X1075690Y738030D02*
D03*
Y758030D02*
D03*
X1327150Y446600D02*
D03*
Y466600D02*
D03*
X1008380Y639130D02*
D03*
Y659130D02*
D03*
X1050290Y672670D02*
D03*
Y692670D02*
D03*
X986790Y638970D02*
D03*
Y658970D02*
D03*
X1050290Y758030D02*
D03*
Y738030D02*
D03*
D28*
X1053061Y582367D02*
D03*
X1126339Y495038D02*
D03*
D29*
X1114230Y591921D02*
D03*
X1130300Y572770D02*
D03*
X1146370Y553619D02*
D03*
D30*
X790041Y591921D02*
D03*
X770890Y575851D02*
D03*
X751739Y559782D02*
D03*
D31*
X848622Y571890D02*
D03*
X761293Y498612D02*
D03*
D32*
X703760Y297180D02*
D03*
X821960D02*
D03*
X782560D02*
D03*
X743160D02*
D03*
X664360D02*
D03*
X624960D02*
D03*
X585560D02*
D03*
X546160D02*
D03*
X506760D02*
D03*
X467360D02*
D03*
X1141580D02*
D03*
X1180980D02*
D03*
X1220380D02*
D03*
X1259780D02*
D03*
X1299180D02*
D03*
X1338580D02*
D03*
D33*
X955480Y765130D02*
D03*
X960480D02*
D03*
X965480D02*
D03*
X970480D02*
D03*
X975480D02*
D03*
X980480D02*
D03*
X985480D02*
D03*
X990480D02*
D03*
X995480D02*
D03*
X1000480D02*
D03*
X1005480D02*
D03*
X1010480D02*
D03*
Y680130D02*
D03*
X1005480D02*
D03*
X1000480D02*
D03*
X995480D02*
D03*
X990480D02*
D03*
X985480D02*
D03*
X980480D02*
D03*
X975480D02*
D03*
X970480D02*
D03*
X965480D02*
D03*
X960480D02*
D03*
X955480D02*
D03*
D34*
X1025480Y750130D02*
D03*
Y745130D02*
D03*
Y740130D02*
D03*
Y735130D02*
D03*
Y730130D02*
D03*
Y725130D02*
D03*
Y720130D02*
D03*
Y715130D02*
D03*
Y710130D02*
D03*
Y705130D02*
D03*
Y700130D02*
D03*
Y695130D02*
D03*
X940480D02*
D03*
Y700130D02*
D03*
Y705130D02*
D03*
Y710130D02*
D03*
Y715130D02*
D03*
Y720130D02*
D03*
Y725130D02*
D03*
Y730130D02*
D03*
Y735130D02*
D03*
Y740130D02*
D03*
Y745130D02*
D03*
Y750130D02*
D03*
D35*
X868840Y732990D02*
D03*
X888840D02*
D03*
Y802640D02*
D03*
X868840D02*
D03*
X929800Y811530D02*
D03*
X949800D02*
D03*
X1006950D02*
D03*
X986950D02*
D03*
X1006950Y788670D02*
D03*
X986950D02*
D03*
X929640D02*
D03*
X949640D02*
D03*
D36*
X869950Y781050D02*
D03*
Y757050D02*
D03*
X888950D02*
D03*
Y781050D02*
D03*
D37*
X758190Y690130D02*
D03*
Y770130D02*
D03*
D38*
X1356570Y450990D02*
D03*
Y427990D02*
D03*
Y404990D02*
D03*
D39*
X1414570Y427990D02*
D03*
D40*
X404368Y553710D02*
D03*
X619368D02*
D03*
D41*
X1383030Y533400D02*
D03*
D42*
Y558800D02*
D03*
Y584200D02*
D03*
D43*
Y609600D02*
D03*
M02*
