G04*
G04 #@! TF.GenerationSoftware,Altium Limited,Altium Designer,20.1.11 (218)*
G04*
G04 Layer_Color=2752767*
%FSLAX44Y44*%
%MOMM*%
G71*
G04*
G04 #@! TF.SameCoordinates,6F891966-A938-45B2-A706-970299DF58FA*
G04*
G04*
G04 #@! TF.FilePolarity,Positive*
G04*
G01*
G75*
%ADD63C,0.0508*%
%ADD64C,0.0677*%
D63*
X402336Y551678D02*
Y555742D01*
X406400D01*
Y551678D01*
X402336D01*
X617336D02*
Y555742D01*
X621400D01*
Y551678D01*
X617336D01*
X1447800Y582168D02*
X1445768Y586232D01*
X1449832D01*
X1447800Y582168D01*
X1460500Y556768D02*
X1458468Y560832D01*
X1462532D01*
X1460500Y556768D01*
X1447800Y531368D02*
X1445768Y535432D01*
X1449832D01*
X1447800Y531368D01*
X1460500Y505968D02*
X1458468Y510032D01*
X1462532D01*
X1460500Y505968D01*
X1447800Y480568D02*
X1445768Y484632D01*
X1449832D01*
X1447800Y480568D01*
X1460500Y455168D02*
X1458468Y459232D01*
X1462532D01*
X1460500Y455168D01*
X1447800Y429768D02*
X1445768Y433832D01*
X1449832D01*
X1447800Y429768D01*
X1460500Y404368D02*
X1458468Y408432D01*
X1462532D01*
X1460500Y404368D01*
X1447800Y378968D02*
X1445768Y383032D01*
X1449832D01*
X1447800Y378968D01*
X1460500Y353568D02*
X1458468Y357632D01*
X1462532D01*
X1460500Y353568D01*
X1422400Y632968D02*
X1420368Y637032D01*
X1424432D01*
X1422400Y632968D01*
X1435100Y607568D02*
X1433068Y611632D01*
X1437132D01*
X1435100Y607568D01*
X1422400Y582168D02*
X1420368Y586232D01*
X1424432D01*
X1422400Y582168D01*
X1435100Y556768D02*
X1433068Y560832D01*
X1437132D01*
X1435100Y556768D01*
X1422400Y531368D02*
X1420368Y535432D01*
X1424432D01*
X1422400Y531368D01*
X1435100Y505968D02*
X1433068Y510032D01*
X1437132D01*
X1435100Y505968D01*
X1422400Y480568D02*
X1420368Y484632D01*
X1424432D01*
X1422400Y480568D01*
X1435100Y455168D02*
X1433068Y459232D01*
X1437132D01*
X1435100Y455168D01*
Y404368D02*
X1433068Y408432D01*
X1437132D01*
X1435100Y404368D01*
X1422400Y378968D02*
X1420368Y383032D01*
X1424432D01*
X1422400Y378968D01*
X1435100Y353568D02*
X1433068Y357632D01*
X1437132D01*
X1435100Y353568D01*
X1397000Y632968D02*
X1394968Y637032D01*
X1399032D01*
X1397000Y632968D01*
Y582168D02*
X1394968Y586232D01*
X1399032D01*
X1397000Y582168D01*
Y531368D02*
X1394968Y535432D01*
X1399032D01*
X1397000Y531368D01*
X1409700Y505968D02*
X1407668Y510032D01*
X1411732D01*
X1409700Y505968D01*
X1397000Y480568D02*
X1394968Y484632D01*
X1399032D01*
X1397000Y480568D01*
X1409700Y455168D02*
X1407668Y459232D01*
X1411732D01*
X1409700Y455168D01*
X1397000Y429768D02*
X1394968Y433832D01*
X1399032D01*
X1397000Y429768D01*
X1409700Y404368D02*
X1407668Y408432D01*
X1411732D01*
X1409700Y404368D01*
X1397000Y378968D02*
X1394968Y383032D01*
X1399032D01*
X1397000Y378968D01*
X1409700Y353568D02*
X1407668Y357632D01*
X1411732D01*
X1409700Y353568D01*
X1371600Y683768D02*
X1369568Y687832D01*
X1373632D01*
X1371600Y683768D01*
X1384300Y658368D02*
X1382268Y662432D01*
X1386332D01*
X1384300Y658368D01*
X1371600Y632968D02*
X1369568Y637032D01*
X1373632D01*
X1371600Y632968D01*
Y480568D02*
X1369568Y484632D01*
X1373632D01*
X1371600Y480568D01*
X1384300Y404368D02*
X1382268Y408432D01*
X1386332D01*
X1384300Y404368D01*
X1371600Y378968D02*
X1369568Y383032D01*
X1373632D01*
X1371600Y378968D01*
X1384300Y353568D02*
X1382268Y357632D01*
X1386332D01*
X1384300Y353568D01*
X1346200Y683768D02*
X1344168Y687832D01*
X1348232D01*
X1346200Y683768D01*
Y632968D02*
X1344168Y637032D01*
X1348232D01*
X1346200Y632968D01*
Y582168D02*
X1344168Y586232D01*
X1348232D01*
X1346200Y582168D01*
Y531368D02*
X1344168Y535432D01*
X1348232D01*
X1346200Y531368D01*
X1358900Y505968D02*
X1356868Y510032D01*
X1360932D01*
X1358900Y505968D01*
X1346200Y480568D02*
X1344168Y484632D01*
X1348232D01*
X1346200Y480568D01*
Y378968D02*
X1344168Y383032D01*
X1348232D01*
X1346200Y378968D01*
X1358900Y353568D02*
X1356868Y357632D01*
X1360932D01*
X1358900Y353568D01*
X1333500Y709168D02*
X1331468Y713232D01*
X1335532D01*
X1333500Y709168D01*
X1320800Y683768D02*
X1318768Y687832D01*
X1322832D01*
X1320800Y683768D01*
X1333500Y658368D02*
X1331468Y662432D01*
X1335532D01*
X1333500Y658368D01*
X1320800Y632968D02*
X1318768Y637032D01*
X1322832D01*
X1320800Y632968D01*
Y582168D02*
X1318768Y586232D01*
X1322832D01*
X1320800Y582168D01*
X1333500Y556768D02*
X1331468Y560832D01*
X1335532D01*
X1333500Y556768D01*
X1320800Y531368D02*
X1318768Y535432D01*
X1322832D01*
X1320800Y531368D01*
X1333500Y505968D02*
X1331468Y510032D01*
X1335532D01*
X1333500Y505968D01*
X1320800Y480568D02*
X1318768Y484632D01*
X1322832D01*
X1320800Y480568D01*
X1333500Y455168D02*
X1331468Y459232D01*
X1335532D01*
X1333500Y455168D01*
X1320800Y429768D02*
X1318768Y433832D01*
X1322832D01*
X1320800Y429768D01*
Y378968D02*
X1318768Y383032D01*
X1322832D01*
X1320800Y378968D01*
X1333500Y353568D02*
X1331468Y357632D01*
X1335532D01*
X1333500Y353568D01*
X1295400Y734568D02*
X1293368Y738632D01*
X1297432D01*
X1295400Y734568D01*
Y683768D02*
X1293368Y687832D01*
X1297432D01*
X1295400Y683768D01*
Y632968D02*
X1293368Y637032D01*
X1297432D01*
X1295400Y632968D01*
Y582168D02*
X1293368Y586232D01*
X1297432D01*
X1295400Y582168D01*
X1308100Y556768D02*
X1306068Y560832D01*
X1310132D01*
X1308100Y556768D01*
X1295400Y531368D02*
X1293368Y535432D01*
X1297432D01*
X1295400Y531368D01*
X1308100Y505968D02*
X1306068Y510032D01*
X1310132D01*
X1308100Y505968D01*
X1295400Y480568D02*
X1293368Y484632D01*
X1297432D01*
X1295400Y480568D01*
X1308100Y455168D02*
X1306068Y459232D01*
X1310132D01*
X1308100Y455168D01*
X1295400Y429768D02*
X1293368Y433832D01*
X1297432D01*
X1295400Y429768D01*
X1308100Y404368D02*
X1306068Y408432D01*
X1310132D01*
X1308100Y404368D01*
Y353568D02*
X1306068Y357632D01*
X1310132D01*
X1308100Y353568D01*
X1282700Y709168D02*
X1280668Y713232D01*
X1284732D01*
X1282700Y709168D01*
X1270000Y683768D02*
X1267968Y687832D01*
X1272032D01*
X1270000Y683768D01*
Y632968D02*
X1267968Y637032D01*
X1272032D01*
X1270000Y632968D01*
X1282700Y607568D02*
X1280668Y611632D01*
X1284732D01*
X1282700Y607568D01*
X1270000Y582168D02*
X1267968Y586232D01*
X1272032D01*
X1270000Y582168D01*
X1282700Y556768D02*
X1280668Y560832D01*
X1284732D01*
X1282700Y556768D01*
X1270000Y531368D02*
X1267968Y535432D01*
X1272032D01*
X1270000Y531368D01*
X1282700Y505968D02*
X1280668Y510032D01*
X1284732D01*
X1282700Y505968D01*
X1270000Y480568D02*
X1267968Y484632D01*
X1272032D01*
X1270000Y480568D01*
X1282700Y455168D02*
X1280668Y459232D01*
X1284732D01*
X1282700Y455168D01*
X1270000Y429768D02*
X1267968Y433832D01*
X1272032D01*
X1270000Y429768D01*
X1282700Y404368D02*
X1280668Y408432D01*
X1284732D01*
X1282700Y404368D01*
X1270000Y378968D02*
X1267968Y383032D01*
X1272032D01*
X1270000Y378968D01*
X1282700Y353568D02*
X1280668Y357632D01*
X1284732D01*
X1282700Y353568D01*
X1257300Y759968D02*
X1255268Y764032D01*
X1259332D01*
X1257300Y759968D01*
X1244600Y683768D02*
X1242568Y687832D01*
X1246632D01*
X1244600Y683768D01*
Y632968D02*
X1242568Y637032D01*
X1246632D01*
X1244600Y632968D01*
X1257300Y607568D02*
X1255268Y611632D01*
X1259332D01*
X1257300Y607568D01*
Y556768D02*
X1255268Y560832D01*
X1259332D01*
X1257300Y556768D01*
Y505968D02*
X1255268Y510032D01*
X1259332D01*
X1257300Y505968D01*
Y455168D02*
X1255268Y459232D01*
X1259332D01*
X1257300Y455168D01*
Y404368D02*
X1255268Y408432D01*
X1259332D01*
X1257300Y404368D01*
Y353568D02*
X1255268Y357632D01*
X1259332D01*
X1257300Y353568D01*
X1219200Y785368D02*
X1217168Y789432D01*
X1221232D01*
X1219200Y785368D01*
X1231900Y759968D02*
X1229868Y764032D01*
X1233932D01*
X1231900Y759968D01*
X1219200Y683768D02*
X1217168Y687832D01*
X1221232D01*
X1219200Y683768D01*
Y632968D02*
X1217168Y637032D01*
X1221232D01*
X1219200Y632968D01*
X1193800Y785368D02*
X1191768Y789432D01*
X1195832D01*
X1193800Y785368D01*
X1181100Y810768D02*
X1179068Y814832D01*
X1183132D01*
X1181100Y810768D01*
Y759968D02*
X1179068Y764032D01*
X1183132D01*
X1181100Y759968D01*
Y505968D02*
X1179068Y510032D01*
X1183132D01*
X1181100Y505968D01*
X1168400Y480568D02*
X1166368Y484632D01*
X1170432D01*
X1168400Y480568D01*
X1181100Y455168D02*
X1179068Y459232D01*
X1183132D01*
X1181100Y455168D01*
X1168400Y429768D02*
X1166368Y433832D01*
X1170432D01*
X1168400Y429768D01*
X1181100Y404368D02*
X1179068Y408432D01*
X1183132D01*
X1181100Y404368D01*
X1168400Y378968D02*
X1166368Y383032D01*
X1170432D01*
X1168400Y378968D01*
X1181100Y353568D02*
X1179068Y357632D01*
X1183132D01*
X1181100Y353568D01*
X1155700Y810768D02*
X1153668Y814832D01*
X1157732D01*
X1155700Y810768D01*
X1143000Y480568D02*
X1140968Y484632D01*
X1145032D01*
X1143000Y480568D01*
Y429768D02*
X1140968Y433832D01*
X1145032D01*
X1143000Y429768D01*
X1155700Y404368D02*
X1153668Y408432D01*
X1157732D01*
X1155700Y404368D01*
X1143000Y378968D02*
X1140968Y383032D01*
X1145032D01*
X1143000Y378968D01*
X1155700Y353568D02*
X1153668Y357632D01*
X1157732D01*
X1155700Y353568D01*
Y302768D02*
X1153668Y306832D01*
X1157732D01*
X1155700Y302768D01*
X1117600Y836168D02*
X1115568Y840232D01*
X1119632D01*
X1117600Y836168D01*
X1130300Y810768D02*
X1128268Y814832D01*
X1132332D01*
X1130300Y810768D01*
Y556768D02*
X1128268Y560832D01*
X1132332D01*
X1130300Y556768D01*
X1117600Y531368D02*
X1115568Y535432D01*
X1119632D01*
X1117600Y531368D01*
Y429768D02*
X1115568Y433832D01*
X1119632D01*
X1117600Y429768D01*
X1130300Y404368D02*
X1128268Y408432D01*
X1132332D01*
X1130300Y404368D01*
X1117600Y378968D02*
X1115568Y383032D01*
X1119632D01*
X1117600Y378968D01*
X1130300Y353568D02*
X1128268Y357632D01*
X1132332D01*
X1130300Y353568D01*
X1117600Y328168D02*
X1115568Y332232D01*
X1119632D01*
X1117600Y328168D01*
Y277368D02*
X1115568Y281432D01*
X1119632D01*
X1117600Y277368D01*
X1104900Y505968D02*
X1102868Y510032D01*
X1106932D01*
X1104900Y505968D01*
X1092200Y480568D02*
X1090168Y484632D01*
X1094232D01*
X1092200Y480568D01*
X1104900Y455168D02*
X1102868Y459232D01*
X1106932D01*
X1104900Y455168D01*
X1092200Y429768D02*
X1090168Y433832D01*
X1094232D01*
X1092200Y429768D01*
X1104900Y404368D02*
X1102868Y408432D01*
X1106932D01*
X1104900Y404368D01*
Y353568D02*
X1102868Y357632D01*
X1106932D01*
X1104900Y353568D01*
X1079500Y505968D02*
X1077468Y510032D01*
X1081532D01*
X1079500Y505968D01*
X1066800Y480568D02*
X1064768Y484632D01*
X1068832D01*
X1066800Y480568D01*
X1079500Y455168D02*
X1077468Y459232D01*
X1081532D01*
X1079500Y455168D01*
X1066800Y429768D02*
X1064768Y433832D01*
X1068832D01*
X1066800Y429768D01*
X1054100Y505968D02*
X1052068Y510032D01*
X1056132D01*
X1054100Y505968D01*
X1041400Y480568D02*
X1039368Y484632D01*
X1043432D01*
X1041400Y480568D01*
X1054100Y455168D02*
X1052068Y459232D01*
X1056132D01*
X1054100Y455168D01*
X1028700Y505968D02*
X1026668Y510032D01*
X1030732D01*
X1028700Y505968D01*
X1016000Y480568D02*
X1013968Y484632D01*
X1018032D01*
X1016000Y480568D01*
X1028700Y455168D02*
X1026668Y459232D01*
X1030732D01*
X1028700Y455168D01*
X1003300Y505968D02*
X1001268Y510032D01*
X1005332D01*
X1003300Y505968D01*
X990600Y480568D02*
X988568Y484632D01*
X992632D01*
X990600Y480568D01*
X1003300Y455168D02*
X1001268Y459232D01*
X1005332D01*
X1003300Y455168D01*
X977900Y505968D02*
X975868Y510032D01*
X979932D01*
X977900Y505968D01*
X965200Y480568D02*
X963168Y484632D01*
X967232D01*
X965200Y480568D01*
X939800Y632968D02*
X937768Y637032D01*
X941832D01*
X939800Y632968D01*
Y531368D02*
X937768Y535432D01*
X941832D01*
X939800Y531368D01*
X952500Y455168D02*
X950468Y459232D01*
X954532D01*
X952500Y455168D01*
X927100D02*
X925068Y459232D01*
X929132D01*
X927100Y455168D01*
X901700Y505968D02*
X899668Y510032D01*
X903732D01*
X901700Y505968D01*
X889000Y480568D02*
X886968Y484632D01*
X891032D01*
X889000Y480568D01*
Y429768D02*
X886968Y433832D01*
X891032D01*
X889000Y429768D01*
X863600Y480568D02*
X861568Y484632D01*
X865632D01*
X863600Y480568D01*
X876300Y404368D02*
X874268Y408432D01*
X878332D01*
X876300Y404368D01*
X863600Y378968D02*
X861568Y383032D01*
X865632D01*
X863600Y378968D01*
X850900Y455168D02*
X848868Y459232D01*
X852932D01*
X850900Y455168D01*
X838200Y429768D02*
X836168Y433832D01*
X840232D01*
X838200Y429768D01*
X850900Y404368D02*
X848868Y408432D01*
X852932D01*
X850900Y404368D01*
X838200Y378968D02*
X836168Y383032D01*
X840232D01*
X838200Y378968D01*
X850900Y353568D02*
X848868Y357632D01*
X852932D01*
X850900Y353568D01*
X787400Y480568D02*
X785368Y484632D01*
X789432D01*
X787400Y480568D01*
X800100Y455168D02*
X798068Y459232D01*
X802132D01*
X800100Y455168D01*
X787400Y429768D02*
X785368Y433832D01*
X789432D01*
X787400Y429768D01*
X736600D02*
X734568Y433832D01*
X738632D01*
X736600Y429768D01*
X685800D02*
X683768Y433832D01*
X687832D01*
X685800Y429768D01*
X673100Y556768D02*
X671068Y560832D01*
X675132D01*
X673100Y556768D01*
X622300Y505968D02*
X620268Y510032D01*
X624332D01*
X622300Y505968D01*
X609600Y480568D02*
X607568Y484632D01*
X611632D01*
X609600Y480568D01*
X622300Y455168D02*
X620268Y459232D01*
X624332D01*
X622300Y455168D01*
X609600Y429768D02*
X607568Y433832D01*
X611632D01*
X609600Y429768D01*
X596900Y455168D02*
X594868Y459232D01*
X598932D01*
X596900Y455168D01*
X584200Y429768D02*
X582168Y433832D01*
X586232D01*
X584200Y429768D01*
X850631Y439670D02*
X848599Y443734D01*
X852663D01*
X850631Y439670D01*
X819150Y446774D02*
X817118Y450838D01*
X821182D01*
X819150Y446774D01*
X635000Y434018D02*
X632968Y438082D01*
X637032D01*
X635000Y434018D01*
X702310Y487445D02*
X700278Y491509D01*
X704342D01*
X702310Y487445D01*
X709930D02*
X707898Y491509D01*
X711962D01*
X709930Y487445D01*
X694690D02*
X692658Y491509D01*
X696722D01*
X694690Y487445D01*
Y478738D02*
X692658Y482802D01*
X696722D01*
X694690Y478738D01*
X709930D02*
X707898Y482802D01*
X711962D01*
X709930Y478738D01*
X702310D02*
X700278Y482802D01*
X704342D01*
X702310Y478738D01*
Y461701D02*
X700278Y465765D01*
X704342D01*
X702310Y461701D01*
X709930D02*
X707898Y465765D01*
X711962D01*
X709930Y461701D01*
X694690D02*
X692658Y465765D01*
X696722D01*
X694690Y461701D01*
Y470408D02*
X692658Y474472D01*
X696722D01*
X694690Y470408D01*
X709930D02*
X707898Y474472D01*
X711962D01*
X709930Y470408D01*
X702310D02*
X700278Y474472D01*
X704342D01*
X702310Y470408D01*
Y505441D02*
X700278Y509505D01*
X704342D01*
X702310Y505441D01*
X709930D02*
X707898Y509505D01*
X711962D01*
X709930Y505441D01*
X694690D02*
X692658Y509505D01*
X696722D01*
X694690Y505441D01*
Y496734D02*
X692658Y500798D01*
X696722D01*
X694690Y496734D01*
X709930D02*
X707898Y500798D01*
X711962D01*
X709930Y496734D01*
X702310D02*
X700278Y500798D01*
X704342D01*
X702310Y496734D01*
Y513771D02*
X700278Y517835D01*
X704342D01*
X702310Y513771D01*
X709930D02*
X707898Y517835D01*
X711962D01*
X709930Y513771D01*
X694690D02*
X692658Y517835D01*
X696722D01*
X694690Y513771D01*
Y522478D02*
X692658Y526542D01*
X696722D01*
X694690Y522478D01*
X709930D02*
X707898Y526542D01*
X711962D01*
X709930Y522478D01*
X702310D02*
X700278Y526542D01*
X704342D01*
X702310Y522478D01*
X683827Y347561D02*
X681795Y351625D01*
X685859D01*
X683827Y347561D01*
X900430Y439928D02*
X898398Y443992D01*
X902462D01*
X900430Y439928D01*
X925150Y632293D02*
X923118Y636357D01*
X927182D01*
X925150Y632293D01*
Y565287D02*
X923118Y569351D01*
X927182D01*
X925150Y565287D01*
X722630Y411877D02*
X720598Y415941D01*
X724662D01*
X722630Y411877D01*
X683454Y415494D02*
X681422Y419558D01*
X685486D01*
X683454Y415494D01*
X772599Y439928D02*
X770567Y443992D01*
X774631D01*
X772599Y439928D01*
X812800Y507238D02*
X810768Y511302D01*
X814832D01*
X812800Y507238D01*
X825500Y483548D02*
X823468Y487612D01*
X827532D01*
X825500Y483548D01*
X918210Y658368D02*
X916178Y662432D01*
X920242D01*
X918210Y658368D01*
X762860Y347561D02*
X760828Y351625D01*
X764892D01*
X762860Y347561D01*
X743160D02*
X741128Y351625D01*
X745192D01*
X743160Y347561D01*
X684530Y632972D02*
X682498Y637037D01*
X686562D01*
X684530Y632972D01*
X745490Y681228D02*
X743458Y685292D01*
X747522D01*
X745490Y681228D01*
X585560Y347561D02*
X583528Y351625D01*
X587592D01*
X585560Y347561D01*
X734069Y723098D02*
X732037Y727162D01*
X736101D01*
X734069Y723098D01*
X882650Y675278D02*
X880618Y679342D01*
X884682D01*
X882650Y675278D01*
X933450Y674878D02*
X931418Y678942D01*
X935482D01*
X933450Y674878D01*
X938330Y681228D02*
X936298Y685292D01*
X940362D01*
X938330Y681228D01*
X958850Y698098D02*
X956818Y702162D01*
X960882D01*
X958850Y698098D01*
X965480Y749941D02*
X963448Y754005D01*
X967512D01*
X965480Y749941D01*
X980480Y743941D02*
X978448Y748005D01*
X982512D01*
X980480Y743941D01*
X988290Y713098D02*
X986258Y717162D01*
X990322D01*
X988290Y713098D01*
X993140Y718098D02*
X991108Y722162D01*
X995172D01*
X993140Y718098D01*
X998260Y723098D02*
X996228Y727162D01*
X1000292D01*
X998260Y723098D01*
X1023620Y762508D02*
X1021588Y766572D01*
X1025652D01*
X1023620Y762508D01*
X1043940Y782828D02*
X1041908Y786892D01*
X1045972D01*
X1043940Y782828D01*
X1219870Y745328D02*
X1217838Y749392D01*
X1221902D01*
X1219870Y745328D01*
D64*
X1385062Y533400D02*
G03*
X1385062Y533400I-2032J0D01*
G01*
Y558800D02*
G03*
X1385062Y558800I-2032J0D01*
G01*
Y584200D02*
G03*
X1385062Y584200I-2032J0D01*
G01*
Y609600D02*
G03*
X1385062Y609600I-2032J0D01*
G01*
M02*
